<?xml version="1.0" standalone="no"?>
<!DOCTYPE svg PUBLIC "-//W3C//DTD SVG 20010904//EN"
 "http://www.w3.org/TR/2001/REC-SVG-20010904/DTD/svg10.dtd">
<svg version="1.0" xmlns="http://www.w3.org/2000/svg"
 width="703.000000pt" height="703.000000pt" viewBox="0 0 703.000000 703.000000"
 preserveAspectRatio="xMidYMid meet">
<metadata>
Created by potrace 1.11, written by Peter Selinger 2001-2013
</metadata>
<g transform="translate(0.000000,703.000000) scale(0.100000,-0.100000)"
fill="#000000" stroke="none">
<path d="M4311 6974 c-58 -26 -640 -293 -749 -345 -57 -27 -106 -49 -108 -49
-2 0 -60 -27 -130 -60 -69 -33 -128 -60 -129 -60 -2 0 -52 -23 -111 -51 -190
-89 -267 -125 -344 -159 -41 -19 -77 -35 -79 -37 -3 -2 -6 -139 -9 -306 -2
-166 -7 -305 -10 -309 -4 -3 -54 -24 -112 -46 -264 -99 -476 -210 -678 -355
-62 -45 -123 -90 -136 -101 -12 -12 -52 -47 -89 -79 -68 -59 -238 -231 -299
-302 -360 -418 -609 -991 -658 -1513 -17 -185 -14 -574 5 -707 3 -16 7 -48 10
-70 23 -157 93 -411 162 -585 143 -364 340 -666 637 -975 l86 -90 0 1248 0
1247 525 0 525 0 0 -1554 0 -1553 168 -42 c92 -23 175 -41 185 -41 16 0 17
148 17 2959 l0 2958 63 30 c34 17 98 47 142 67 44 20 249 115 455 210 206 95
378 171 382 169 4 -2 8 -1440 8 -3195 0 -1755 2 -3194 5 -3196 7 -7 98 13 253
56 l132 36 0 51 c1 27 3 806 5 1730 2 924 4 1744 4 1823 l1 142 520 0 520 0 0
-1557 0 -1558 88 90 c114 118 174 189 262 310 286 396 482 896 527 1352 10
102 10 557 0 653 -12 116 -62 353 -102 485 -129 428 -363 828 -669 1145 -323
334 -683 566 -1131 727 -38 14 -73 28 -77 32 -4 3 -8 318 -9 699 -2 482 -6
692 -13 691 -6 0 -26 -7 -45 -15z"/>
</g>
</svg>
